<?xml version="1.0" encoding="utf-8"?>
<!-- Generator: Adobe Illustrator 22.1.0, SVG Export Plug-In . SVG Version: 6.00 Build 0)  -->
<svg version="1.1" id="Layer_1" xmlns="http://www.w3.org/2000/svg" xmlns:xlink="http://www.w3.org/1999/xlink" x="0px" y="0px"
	 viewBox="0 0 651.8 169.7" style="enable-background:new 0 0 651.8 169.7;" xml:space="preserve">
<style type="text/css">
	.st0{fill:#FFFFFF;}
	.st1{fill:none;}
	.st2{font-family:'HammersmithOne-Regular';}
	.st3{font-size:72px;}
</style>
<g>
	<path class="st0" d="M596.4,5.2H156.5v25.4c13.6,0.7,22.7,1.1,22.7,1.1c0.2,0,0.4,0,0.5,0.1l1.2,0.4c0.8,0.3,1.4,1,1.4,1.9v1.3
		c0,0.1,0,15.2-1.2,28.5c-0.1,1-0.2,2-0.3,3h415.6V5.2z"/>
	<path class="st1" d="M154.2,139.1c1,0,1.9-0.4,2.5-1s1-1.5,1-2.5s-0.4-1.9-1-2.5c-0.3-0.3-0.7-0.6-1.1-0.7
		c-0.4-0.2-0.8-0.3-1.4-0.3c-1,0-1.9,0.4-2.5,1s-1,1.5-1,2.5s0.4,1.9,1,2.5C152.3,138.7,153.2,139.1,154.2,139.1z"/>
	<path class="st0" d="M146.8,128.8L146.8,128.8L146.8,128.8z"/>
	<path class="st0" d="M174.9,57.6c0.6-7.6,0.7-15.2,0.8-19.3c-1.5-0.1-3.6-0.2-6.2-0.4c-3.5-0.2-7.9-0.4-13-0.6v29.5h17.6
		C174.5,64,174.7,60.8,174.9,57.6L174.9,57.6z"/>
	<path class="st0" d="M173.4,71.9L173.4,71.9c-0.3,2.1-0.7,3.9-1.1,5.2v0.1c-0.1,0.6-0.4,1.1-0.7,1.9c-0.1,0.2-0.1,0.3-0.3,0.5
		c-0.5,0.2-1.3,0.6-2.4,0.9c-2.5,0.7-6.1,1.5-10.6,2.1c-7.9,1.2-18.5,2.4-29.9,3.5l0,0c-17.1,1.6-36.1,3-51.3,4.1
		c-7.6,0.5-14.2,1-19.2,1.4l0,0c-2.5,0.2-4.6,0.4-6.2,0.5h-0.1c-0.3,0-0.7,0.1-1,0.1s-0.7,0.1-1.1,0.1l0,0c-0.1-0.1-0.1-0.3-0.2-0.4
		c-0.7-1.2-1.5-3-2.3-5.3l0,0c-1.5-4-3-9.6-4.4-15.6l0,0c-2.2-9-4.2-19.1-5.8-27.1c-0.8-4-1.5-7.5-2-10.2v-0.1
		c-0.3-1.3-0.5-2.3-0.7-3.2l0,0c-0.1-0.3-0.2-0.7-0.3-1c0-0.1,0-0.2-0.1-0.2c0-0.1,0-0.1-0.1-0.2c0-0.2-0.1-0.3-0.1-0.4
		s-0.1-0.2-0.1-0.2c0-0.1,0-0.1-0.1-0.2c-0.2-0.5-0.6-1-1-1.4l0,0c0,0,0,0-0.1-0.1c0,0,0,0-0.1-0.1l0,0c-0.4-0.4-0.8-0.7-1.1-1
		c-0.4-0.3-0.7-0.5-1-0.7l-0.2-0.1c-1.4-0.8-3.2-1.8-5.2-2.6c-2.8-1.2-5.9-2.4-8.4-3.2c-2.4-0.9-4.2-1.4-4.2-1.4
		c-1-0.3-2.2,0.3-2.5,1.3L9,21.4c-0.3,1,0.2,2.1,1.2,2.4c0.2,0.1,0.3,0.1,0.5,0.2c0.6,0.2,1.9,0.6,3.5,1.2s3.5,1.3,5.4,2l0,0
		c2.1,0.9,4.3,1.8,5.9,2.7c0.4,0.3,0.8,0.5,1.1,0.6c0.2,0.1,0.3,0.2,0.4,0.2l0.1,0.1l0,0l0,0c0.1,0.1,0.1,0.1,0.2,0.2
		c0.1,0.2,0.1,0.5,0.2,0.8c0.1,0.3,0.1,0.6,0.2,0.9v0.2c0.7,3,1.7,8.5,3,15.1l0,0c2,9.9,4.5,22,7.1,31.9c1.3,4.9,2.6,9.2,4,12.5l0,0
		c0.7,1.6,1.4,3,2.2,4.1l0.1,0.1c0.2,0.2,0.4,0.5,0.7,0.8c0.2,0.2,0.5,0.5,0.8,0.7c0.3,0.3,0.6,0.4,0.8,0.5c0.3,0.1,0.5,0.2,0.6,0.2
		l0,0c0.3,0.1,0.8,0.3,1.5,0.3c0.1,0,0.3,0,0.6,0c0.2,0,0.3-0.1,0.5-0.1c0.1,0,0.1,0,0.1,0h0.1h0.3c0.6-0.1,1.4-0.2,2.4-0.3
		c-2,1.8-4.1,3.8-6.3,6c-5.2,5.2-10.4,11-14.3,15.4l0,0c-1.9,2.2-3.5,4.1-4.6,5.4c-0.2,0-0.5,0-0.7,0c-2.8,0-5.4,1.1-7.2,3
		c-1.9,1.9-3,4.5-3,7.2c0,2.8,1.1,5.4,3,7.2c1.9,1.9,4.5,3,7.2,3c2.8,0,5.4-1.1,7.2-3c1.9-1.9,3-4.5,3-7.2c0-2.8-1.1-5.4-3-7.2
		l-0.1-0.1c2.9-3.4,7.5-8.7,12.5-13.9l0,0c3.9-4.1,8-8.3,11.5-11.3l0,0c1.7-1.5,3.4-2.8,4.7-3.6l0.1-0.1c0.5-0.4,1.1-0.6,1.7-0.9
		c0.2-0.1,0.3-0.2,0.5-0.2c0.1,0,0.2-0.1,0.3-0.1l0,0c0.1,0,0.4,0,0.8,0.1c0.4,0,0.8,0.1,1.3,0.2c1.9,0.4,4.8,1.2,8.1,2.4l0,0
		c5.9,2,13.7,5,21.9,8.3l0,0c12.3,4.9,25.6,10.6,35.9,15c5.1,2.2,9.5,4.1,12.6,5.5h0.1c0.1,0,0.2,0.1,0.3,0.1
		c-1.2,1.7-1.9,3.8-1.9,5.9c0,2.8,1.1,5.4,3,7.2c1.9,1.9,4.5,3,7.2,3c2.8,0,5.4-1.1,7.2-3c1.9-1.9,3-4.5,3-7.2c0-2.8-1.1-5.4-3-7.2
		c-1.9-1.9-4.5-3-7.2-3c-0.4,0-0.9,0-1.3,0.1c-2-0.9-20-8.9-39.2-16.8l0,0c-10.2-4.2-20.7-8.5-29.5-11.7l0,0c-0.5-0.2-1-0.4-1.5-0.6
		c13.2-1,28.6-2.1,42.9-3.4l0,0c12.4-1.1,24.1-2.4,32.9-3.7l0,0c4.4-0.7,8.2-1.4,11.1-2.1h0.1c1.3-0.4,2.6-0.7,3.7-1.2l0,0l0,0l0,0
		l0,0c0.5-0.2,1-0.5,1.5-0.8c0.3-0.2,0.6-0.4,0.9-0.6c0.3-0.3,0.5-0.5,0.7-0.8l0.1-0.1c0.5-0.7,0.8-1.4,1.2-2.2v-0.1
		c0.7-1.6,1.1-3.4,1.6-5.4v-0.1c0.6-2.7,1-5.9,1.4-9.3h-6.7C173.9,68.7,173.7,70.3,173.4,71.9z M27,30.2L27,30.2L27,30.2z M27,30.3
		L27,30.3L27,30.3z M33.6,28.4L33.6,28.4L33.6,28.4z M29.3,138.1c-0.6,0.6-1.5,1-2.5,1s-1.9-0.4-2.5-1s-1-1.5-1-2.5s0.4-1.9,1-2.5
		s1.5-1,2.5-1c0.4,0,2.1,0.6,2.5,1.2c0.6,0.6,1,1.5,1,2.4C30.3,136.7,30,137.4,29.3,138.1z M151.7,133.1c0.6-0.6,1.5-1,2.5-1
		c0.5,0,1,0.1,1.4,0.3s0.8,0.4,1.1,0.7c0.6,0.6,1,1.5,1,2.5s-0.4,1.9-1,2.5s-1.5,1-2.5,1s-1.9-0.4-2.5-1s-1-1.5-1-2.5
		S151.1,133.7,151.7,133.1z M146.8,128.8L146.8,128.8L146.8,128.8L146.8,128.8z"/>
	<path class="st0" d="M125.1,29.1L125.1,29.1c-14.5-0.7-30.1-1.3-44-1.8l0,0c-14-0.5-20.3-0.8-28.6-0.8c-3.3,0-5.9,0.1-7.7,0.2
		c-0.5,0-1,0.3-1.4,0.7c-0.4,0.4-0.5,0.9-0.5,1.5l0.2,2.7c0.1,1.1,1,1.9,2.1,1.8c1.7-0.1,4.1-0.2,7.4-0.2c8,0,14.3,0.3,28.3,0.8l0,0
		c20.9,0.7,45.4,1.9,64.7,2.8c3.9,0.2,7.5,0.4,10.9,0.6v-6.8C147.5,30.1,136.6,29.6,125.1,29.1z"/>
	<path class="st0" d="M24.9,22.2L24.9,22.2L24.9,22.2z"/>
</g>
<g>
	<g>
		<path d="M266.3,21.3h9.4c5.4,0,8.4,3.1,8.4,8.1c0,4.2-2,6.1-3.8,6.8c2.4,0.9,4.8,3.1,4.8,8c0,6.1-3.9,9.6-9.6,9.6h-9.3V21.3H266.3
			z M274.4,34.5c3.8,0,4.9-1.5,4.9-4.6c0-3-1.6-4.5-4.6-4.5h-3.4v9.1H274.4z M271.2,49.8h3.8c3.2,0,5-1.8,5-5.6
			c0-3.7-1.7-5.7-5.7-5.7h-3.1L271.2,49.8L271.2,49.8z"/>
		<path d="M294.5,21.3v22.5c0,3,0.8,6.3,4.6,6.3c3.8,0,4.6-2.8,4.6-6.2V21.3h5.1v22.6c0,5.9-2.2,10.4-9.8,10.4
			c-7.4,0-9.6-4.3-9.6-10.4V21.3H294.5z"/>
		<path d="M319.2,21.3v22.5c0,3,0.8,6.3,4.6,6.3c3.8,0,4.6-2.8,4.6-6.2V21.3h5.1v22.6c0,5.9-2.2,10.4-9.8,10.4
			c-7.4,0-9.6-4.3-9.6-10.4V21.3H319.2z"/>
		<path d="M344.2,39.6v14.2h-5V21.3h9.5c5.8,0,8.9,3.1,8.9,8.7c0,4.8-2.5,6.8-4.3,7.5c2.7,1.1,3.8,3.5,3.8,8.2V47
			c0,3.5,0.1,5.1,0.4,6.9h-4.9c-0.5-1.5-0.5-4.2-0.5-6.9v-1.2c0-4.4-1-6.2-4.9-6.2H344.2z M344.2,35.4h3.2c3.7,0,5.1-1.8,5.1-5.2
			c0-3-1.4-4.8-4.6-4.8h-3.7V35.4z"/>
		<path d="M366.5,25.7h-7.1v-4.4h19.2v4.4h-7.1v28.1h-5.1V25.7H366.5z"/>
		<path d="M384.9,44.9c0.3,2.9,1.5,5.4,4.7,5.4c3.1,0,4.3-1.8,4.3-4.7s-1.3-4.6-5.6-6.6c-5.4-2.6-7.6-4.9-7.6-9.7
			c0-5,3.2-8.5,8.9-8.5c7,0,8.7,4.8,8.8,8.9h-5c-0.2-1.8-0.7-4.8-4-4.8c-2.6,0-3.7,1.7-3.7,4.1c0,2.6,1.2,3.8,5.1,5.7
			c5.8,2.7,8.2,5.4,8.2,10.6c0,5.1-3.1,9.2-9.6,9.2c-7.2,0-9.4-4.6-9.6-9.4h5.1L384.9,44.9L384.9,44.9z"/>
		<path d="M408.3,21.3v22.5c0,3,0.8,6.3,4.6,6.3c3.8,0,4.6-2.8,4.6-6.2V21.3h5.1v22.6c0,5.9-2.2,10.4-9.8,10.4
			c-7.4,0-9.6-4.3-9.6-10.4V21.3H408.3z"/>
		<path d="M428.2,21.3h9.3c5.3,0,9.1,3.2,9.1,9.5c0,6.1-3.5,9.5-9.6,9.5h-3.8v13.5h-5.1V21.3H428.2z M433.2,36.2h3.2
			c3.5,0,5.1-1.8,5.1-5.5c0-3.4-1.7-5.3-4.7-5.3h-3.6V36.2z"/>
		<path d="M466.3,39h-10.6v10.5h11.8l-0.6,4.4h-16.2V21.3h16.1v4.4h-11.1v8.8h10.6L466.3,39L466.3,39z"/>
		<path d="M476.4,39.6v14.2h-5V21.3h9.5c5.8,0,8.9,3.1,8.9,8.7c0,4.8-2.5,6.8-4.3,7.5c2.7,1.1,3.8,3.5,3.8,8.2V47
			c0,3.5,0.1,5.1,0.4,6.9h-4.9c-0.5-1.5-0.5-4.2-0.5-6.9v-1.2c0-4.4-1-6.2-4.9-6.2H476.4z M476.4,35.4h3.2c3.7,0,5.1-1.8,5.1-5.2
			c0-3-1.4-4.8-4.6-4.8h-3.7V35.4z"/>
	</g>
</g>
<rect x="170" y="86" class="st1" width="482.8" height="106.7"/>
<text transform="matrix(1 0 0 1 169.996 138.4306)" class="st0 st2 st3">Leo v.d. Drift</text>
</svg>
